<?xml version="1.0" encoding="UTF-8" standalone="no"?>
<!-- Created with Inkscape (http://www.inkscape.org/) -->

<svg
   xmlns:dc="http://purl.org/dc/elements/1.1/"
   xmlns:cc="http://creativecommons.org/ns#"
   xmlns:rdf="http://www.w3.org/1999/02/22-rdf-syntax-ns#"
   xmlns:svg="http://www.w3.org/2000/svg"
   xmlns="http://www.w3.org/2000/svg"
   xmlns:sodipodi="http://sodipodi.sourceforge.net/DTD/sodipodi-0.dtd"
   xmlns:inkscape="http://www.inkscape.org/namespaces/inkscape"
   width="297mm"
   height="210mm"
   viewBox="0 0 297 210"
   version="1.1"
   id="svg8"
   sodipodi:docname="manos2.svg"
   inkscape:version="0.92.2 (5c3e80d, 2017-08-06)">
  <defs
     id="defs2" />
  <sodipodi:namedview
     id="base"
     pagecolor="#ffffff"
     bordercolor="#666666"
     borderopacity="1.0"
     inkscape:pageopacity="0.0"
     inkscape:pageshadow="2"
     inkscape:zoom="0.66245342"
     inkscape:cx="579.37868"
     inkscape:cy="427.40236"
     inkscape:document-units="mm"
     inkscape:current-layer="layer1"
     showgrid="false"
     inkscape:window-width="1366"
     inkscape:window-height="705"
     inkscape:window-x="-8"
     inkscape:window-y="-8"
     inkscape:window-maximized="1" />
  <metadata
     id="metadata5">
    <rdf:RDF>
      <cc:Work
         rdf:about="">
        <dc:format>image/svg+xml</dc:format>
        <dc:type
           rdf:resource="http://purl.org/dc/dcmitype/StillImage" />
        <dc:title></dc:title>
      </cc:Work>
    </rdf:RDF>
  </metadata>
  <g
     inkscape:label="Capa 1"
     inkscape:groupmode="layer"
     id="layer1"
     transform="translate(0,-87)">
    <path
       style="opacity:0.997;fill:#ffcc00;fill-opacity:1;fill-rule:nonzero;stroke:none;stroke-width:4.02519703;stroke-linecap:butt;stroke-linejoin:miter;stroke-miterlimit:4;stroke-dasharray:none;stroke-dashoffset:0;stroke-opacity:1;paint-order:stroke fill markers"
       d=""
       id="path938"
       inkscape:connector-curvature="0"
       transform="matrix(0.26458333,0,0,0.26458333,0,87)" />
    <path
       style="opacity:0.997;fill:#ffcc00;fill-opacity:1;fill-rule:nonzero;stroke:none;stroke-width:4.02519703;stroke-linecap:butt;stroke-linejoin:miter;stroke-miterlimit:4;stroke-dasharray:none;stroke-dashoffset:0;stroke-opacity:1;paint-order:stroke fill markers"
       d=""
       id="path940"
       inkscape:connector-curvature="0"
       transform="matrix(0.26458333,0,0,0.26458333,0,87)" />
    <path
       style="opacity:0.997;fill:#aa4400;fill-opacity:1;fill-rule:nonzero;stroke:none;stroke-width:4.02519703;stroke-linecap:butt;stroke-linejoin:miter;stroke-miterlimit:4;stroke-dasharray:none;stroke-dashoffset:0;stroke-opacity:1;paint-order:stroke fill markers"
       d=""
       id="path972"
       inkscape:connector-curvature="0"
       transform="matrix(0.26458333,0,0,0.26458333,0,87)" />
    <path
       style="opacity:0.997;fill:#ffd42a;fill-opacity:1;fill-rule:nonzero;stroke:none;stroke-width:4.02519703;stroke-linecap:butt;stroke-linejoin:miter;stroke-miterlimit:4;stroke-dasharray:none;stroke-dashoffset:0;stroke-opacity:1;paint-order:stroke fill markers"
       d=""
       id="path998"
       inkscape:connector-curvature="0"
       transform="matrix(0.26458333,0,0,0.26458333,0,87)" />
    <path
       style="opacity:0.997;fill:#ffd42a;fill-opacity:1;fill-rule:nonzero;stroke:none;stroke-width:4.02519703;stroke-linecap:butt;stroke-linejoin:miter;stroke-miterlimit:4;stroke-dasharray:none;stroke-dashoffset:0;stroke-opacity:1;paint-order:stroke fill markers"
       d=""
       id="path1046"
       inkscape:connector-curvature="0"
       transform="matrix(0.26458333,0,0,0.26458333,0,87)" />
    <path
       style="opacity:0.997;fill:#ffd42a;fill-opacity:1;fill-rule:nonzero;stroke:none;stroke-width:4.02519703;stroke-linecap:butt;stroke-linejoin:miter;stroke-miterlimit:4;stroke-dasharray:none;stroke-dashoffset:0;stroke-opacity:1;paint-order:stroke fill markers"
       d=""
       id="path1048"
       inkscape:connector-curvature="0"
       transform="matrix(0.26458333,0,0,0.26458333,0,87)" />
    <path
       style="opacity:0.997;fill:#ffd42a;fill-opacity:1;fill-rule:nonzero;stroke:none;stroke-width:4.02519703;stroke-linecap:butt;stroke-linejoin:miter;stroke-miterlimit:4;stroke-dasharray:none;stroke-dashoffset:0;stroke-opacity:1;paint-order:stroke fill markers"
       d=""
       id="path1058"
       inkscape:connector-curvature="0"
       transform="matrix(0.26458333,0,0,0.26458333,0,87)" />
    <path
       style="opacity:0.997;fill:#cccccc;fill-opacity:1;fill-rule:nonzero;stroke:none;stroke-width:12.47244072;stroke-linecap:butt;stroke-linejoin:miter;stroke-miterlimit:4;stroke-dasharray:none;stroke-dashoffset:0;stroke-opacity:1;paint-order:stroke fill markers"
       d=""
       id="path1104"
       inkscape:connector-curvature="0"
       transform="matrix(0.26458333,0,0,0.26458333,0,87)" />
    <path
       style="opacity:0.997;fill:#a05a2c;fill-opacity:1;fill-rule:nonzero;stroke:none;stroke-width:12.47244072;stroke-linecap:butt;stroke-linejoin:miter;stroke-miterlimit:4;stroke-dasharray:none;stroke-dashoffset:0;stroke-opacity:1;paint-order:stroke fill markers"
       d=""
       id="path1130"
       inkscape:connector-curvature="0"
       transform="matrix(0.26458333,0,0,0.26458333,0,87)" />
    <path
       style="opacity:0.997;fill:#a05a2c;fill-opacity:1;fill-rule:nonzero;stroke:none;stroke-width:12.47244072;stroke-linecap:butt;stroke-linejoin:miter;stroke-miterlimit:4;stroke-dasharray:none;stroke-dashoffset:0;stroke-opacity:1;paint-order:stroke fill markers"
       d=""
       id="path1260"
       inkscape:connector-curvature="0"
       transform="matrix(0.26458333,0,0,0.26458333,0,87)" />
    <path
       style="opacity:0.997;fill:#ffd42a;fill-opacity:1;fill-rule:nonzero;stroke:none;stroke-width:12.47244072;stroke-linecap:butt;stroke-linejoin:miter;stroke-miterlimit:4;stroke-dasharray:none;stroke-dashoffset:0;stroke-opacity:1;paint-order:stroke fill markers"
       d=""
       id="path1622"
       inkscape:connector-curvature="0"
       transform="matrix(0.26458333,0,0,0.26458333,0,87)" />
    <path
       style="opacity:0.997;fill:#c87137;fill-opacity:1;fill-rule:nonzero;stroke:none;stroke-width:12.47244072;stroke-linecap:butt;stroke-linejoin:miter;stroke-miterlimit:4;stroke-dasharray:none;stroke-dashoffset:0;stroke-opacity:1;paint-order:stroke fill markers"
       d=""
       id="path1626"
       inkscape:connector-curvature="0"
       transform="matrix(0.26458333,0,0,0.26458333,0,87)" />
    <path
       style="opacity:1;fill:#ffeeaa;fill-opacity:1;fill-rule:nonzero;stroke:none;stroke-width:3.29999995;stroke-linecap:butt;stroke-linejoin:miter;stroke-miterlimit:4;stroke-dasharray:none;stroke-dashoffset:0;stroke-opacity:1;paint-order:stroke fill markers"
       d="m 101.41795,232.07879 c -0.0756,-0.92828 -0.20098,-3.80018 -0.2786,-6.382 -0.16365,-5.44399 -0.0889,-6.04556 1.40583,-11.30881 1.24705,-4.39124 1.54701,-6.12403 2.25313,-13.01579 0.60441,-5.89913 0.64806,-6.06481 3.85079,-14.61609 0.98226,-2.62264 1.2417,-3.57232 1.25326,-4.58754 0.0133,-1.16788 -0.0273,-1.28619 -0.46234,-1.34801 -0.81882,-0.11635 -1.48388,0.91281 -4.33986,6.71581 -1.7829,3.62264 -2.94605,5.7379 -3.31461,6.0278 -0.68775,0.54099 -1.72266,0.57383 -2.743436,0.0871 l -0.754046,-0.35958 -0.01021,-2.04087 c -0.03196,-6.3804 -0.42377,-18.15017 -0.627221,-18.84154 -0.371372,-1.26201 -1.748936,-1.71512 -2.134135,-0.70197 -0.222152,0.5843 -0.519977,3.9909 -0.858628,9.82118 -0.505645,8.7053 -0.9007,10.24029 -2.453418,9.53283 -0.765162,-0.34863 -1.059773,-1.64008 -2.247704,-9.85289 -1.324385,-9.1562 -1.644269,-11.0142 -2.022046,-11.74474 -0.475089,-0.91872 -1.622537,-1.16451 -2.014789,-0.43158 -0.337249,0.63015 -0.276871,3.64688 0.244096,12.19673 0.548312,8.99855 0.510723,9.45909 -0.791985,9.70347 -0.986634,0.1851 -1.620411,-0.24927 -2.601502,-1.78295 -1.047589,-1.63765 -3.081708,-5.93775 -5.068523,-10.71479 -1.6916,-4.06725 -2.42002,-5.33434 -3.06658,-5.33434 -0.64128,0 -0.88531,0.46994 -0.88531,1.70484 0,1.46018 0.20698,2.27732 2.35166,9.28391 2.26296,7.39298 2.599953,8.96381 2.632105,12.26898 0.02318,2.38148 -0.02521,2.76337 -0.451735,3.56525 -1.00334,1.88639 -2.19031,2.45354 -4.19567,2.00477 -0.60919,-0.13633 -2.62839,-1.06666 -4.48711,-2.0674 -4.161288,-2.24043 -5.915838,-2.8625 -8.073738,-2.8625 -1.28269,0 -1.69513,0.0849 -2.14946,0.44223 -0.30921,0.24323 -0.56221,0.57441 -0.56221,0.73595 0,0.3707 0.96913,1.08765 2.88054,2.13097 1.9974,1.09025 4.36698,2.68581 6.18784,4.16656 3.361328,2.73349 14.863775,14.70466 15.545236,16.17872 0.429622,0.9293 0.45779,1.31929 0.45779,6.33818 v 5.34794 l 4.694219,0.26091 c 2.581822,0.14349 5.846439,0.40104 7.254705,0.57231 1.408266,0.17128 3.271637,0.37517 4.140822,0.45309 l 1.580333,0.14167 z"
       id="path1779"
       inkscape:connector-curvature="0" />
  </g>
</svg>
